<svg width="120" height="120" viewBox="0 0 120 120" fill="none" xmlns="http://www.w3.org/2000/svg">
<path id="Vector" fill-rule="evenodd" clip-rule="evenodd" d="M62.4369 0.369453C60.8531 -0.123151 59.1469 -0.123151 57.5631 0.369452L25.3549 10.3868C23.771 10.8794 22.3907 11.8393 21.4119 13.129L1.50609 39.3547C0.527216 40.6443 0 42.1975 0 43.7916V76.2084C0 77.8025 0.527215 79.3557 1.50608 80.6453L21.4119 106.871C22.3907 108.161 23.771 109.121 25.3549 109.613L57.5631 119.631C59.1469 120.123 60.8531 120.123 62.4369 119.631L94.6451 109.613C96.229 109.121 97.6093 108.161 98.5881 106.871L118.494 80.6453C119.473 79.3557 120 77.8025 120 76.2084V43.7916C120 42.1975 119.473 40.6443 118.494 39.3547L98.5881 13.129C97.6093 11.8393 96.229 10.8794 94.6451 10.3868L62.4369 0.369453ZM60 99.2525C82.6476 99.2525 101.007 81.6786 101.007 60C101.007 38.3214 82.6476 20.7475 60 20.7475C37.3524 20.7475 18.993 38.3214 18.993 60C18.993 81.6786 37.3524 99.2525 60 99.2525Z" fill="url(#paint0_linear_175_493)"/>
<defs>
<linearGradient id="paint0_linear_175_493" x1="30.566" y1="21.4286" x2="57.1357" y2="120.766" gradientUnits="userSpaceOnUse">
<stop stop-color="#1738DC"/>
<stop offset="1" stop-color="#87E9D2"/>
</linearGradient>
</defs>
</svg>
