<svg width="20" height="21" viewBox="0 0 20 21" fill="none" xmlns="http://www.w3.org/2000/svg">
<g id="flat-color-icons:google">
<path id="Vector" d="M18.1716 8.86794H17.5003V8.83335H10.0003V12.1667H14.7099C14.0228 14.1071 12.1766 15.5 10.0003 15.5C7.23908 15.5 5.00033 13.2613 5.00033 10.5C5.00033 7.73877 7.23908 5.50002 10.0003 5.50002C11.2749 5.50002 12.4345 5.98085 13.3174 6.76627L15.6745 4.40919C14.1862 3.0221 12.1953 2.16669 10.0003 2.16669C5.39824 2.16669 1.66699 5.89794 1.66699 10.5C1.66699 15.1021 5.39824 18.8334 10.0003 18.8334C14.6024 18.8334 18.3337 15.1021 18.3337 10.5C18.3337 9.94127 18.2762 9.39585 18.1716 8.86794Z" fill="#FFC107"/>
<path id="Vector_2" d="M2.62793 6.62127L5.36585 8.62919C6.10668 6.79502 7.90085 5.50002 10.0004 5.50002C11.275 5.50002 12.4346 5.98085 13.3175 6.76627L15.6746 4.40919C14.1863 3.0221 12.1954 2.16669 10.0004 2.16669C6.7996 2.16669 4.02376 3.97377 2.62793 6.62127Z" fill="#FF3D00"/>
<path id="Vector_3" d="M9.9998 18.8333C12.1523 18.8333 14.1081 18.0096 15.5869 16.67L13.0077 14.4875C12.1431 15.1454 11.0863 15.5012 9.9998 15.5C7.8323 15.5 5.99189 14.1179 5.29855 12.1891L2.58105 14.2829C3.96022 16.9816 6.76105 18.8333 9.9998 18.8333Z" fill="#4CAF50"/>
<path id="Vector_4" d="M18.1712 8.8679H17.5V8.83331H10V12.1666H14.7096C14.3809 13.0902 13.7889 13.8971 13.0067 14.4879L13.0079 14.4871L15.5871 16.6696C15.4046 16.8354 18.3333 14.6666 18.3333 10.5C18.3333 9.94123 18.2758 9.39581 18.1712 8.8679Z" fill="#1976D2"/>
</g>
</svg>
