<svg width="14" height="14" viewBox="0 0 14 14" fill="none" xmlns="http://www.w3.org/2000/svg">
<g id="vuesax/bold/close-circle">
<g id="close-circle">
<path id="Vector" d="M7.00033 1.16675C3.78616 1.16675 1.16699 3.78591 1.16699 7.00008C1.16699 10.2142 3.78616 12.8334 7.00033 12.8334C10.2145 12.8334 12.8337 10.2142 12.8337 7.00008C12.8337 3.78591 10.2145 1.16675 7.00033 1.16675ZM8.96033 8.34175C9.12949 8.51091 9.12949 8.79091 8.96033 8.96008C8.87283 9.04758 8.76199 9.08841 8.65116 9.08841C8.54033 9.08841 8.42949 9.04758 8.34199 8.96008L7.00033 7.61841L5.65866 8.96008C5.57116 9.04758 5.46033 9.08841 5.34949 9.08841C5.23866 9.08841 5.12783 9.04758 5.04033 8.96008C4.87116 8.79091 4.87116 8.51091 5.04033 8.34175L6.38199 7.00008L5.04033 5.65841C4.87116 5.48925 4.87116 5.20925 5.04033 5.04008C5.20949 4.87091 5.48949 4.87091 5.65866 5.04008L7.00033 6.38175L8.34199 5.04008C8.51116 4.87091 8.79116 4.87091 8.96033 5.04008C9.12949 5.20925 9.12949 5.48925 8.96033 5.65841L7.61866 7.00008L8.96033 8.34175Z" fill="#777777"/>
</g>
</g>
</svg>
