<svg width="20" height="20" viewBox="0 0 20 20" fill="none" xmlns="http://www.w3.org/2000/svg">
<g id="eye-off">
<path id="Vector" d="M8.82089 8.82243C8.50837 9.13505 8.33285 9.55902 8.33293 10.0011C8.333 10.4431 8.50868 10.867 8.8213 11.1795C9.13393 11.492 9.55789 11.6675 9.99993 11.6675C10.442 11.6674 10.8659 11.4917 11.1784 11.1791M13.9008 13.8942C12.7319 14.6256 11.3789 15.0091 10 15C7 15 4.5 13.3334 2.5 10C3.56 8.23336 4.76 6.93503 6.1 6.10503M8.48333 5.15002C8.98253 5.04897 9.49068 4.99871 10 5.00002C13 5.00002 15.5 6.66669 17.5 10C16.945 10.925 16.3508 11.7225 15.7183 12.3917M2.5 2.5L17.5 17.5" stroke="#777777" stroke-width="1.2" stroke-linecap="round" stroke-linejoin="round"/>
</g>
</svg>
